<svg xmlns="http://www.w3.org/2000/svg" width="169" height="169" viewBox="0 0 169 169">
  <defs>
    <style>
      .cls-1 {
        fill-rule: evenodd;
      }
    </style>
  </defs>
  <path id="Forma_1" data-name="Forma 1" class="cls-1" d="M122.361,0H46.636A46.691,46.691,0,0,0,0,46.638v75.724A46.69,46.69,0,0,0,46.636,169h75.725A46.691,46.691,0,0,0,169,122.362V46.638A46.69,46.69,0,0,0,122.361,0Zm31.645,122.362a31.68,31.68,0,0,1-31.644,31.644H46.636a31.678,31.678,0,0,1-31.642-31.644V46.638A31.679,31.679,0,0,1,46.636,14.994h75.725a31.68,31.68,0,0,1,31.644,31.644v75.724h0ZM84.5,40.955A43.546,43.546,0,1,0,128.046,84.5,43.6,43.6,0,0,0,84.5,40.955Zm0,72.1A28.552,28.552,0,1,1,113.052,84.5,28.585,28.585,0,0,1,84.5,113.052ZM129.873,28.24a10.99,10.99,0,1,0,7.777,3.219A11.039,11.039,0,0,0,129.873,28.24Z"/>
</svg>
