<svg xmlns="http://www.w3.org/2000/svg" width="52" height="96" viewBox="0 0 52 96">
  <defs>
    <style>
      .cls-1 {
        fill-rule: evenodd;
      }
    </style>
  </defs>
  <path id="Forma_1" data-name="Forma 1" class="cls-1" d="M50.041,0.019L37.568,0C23.557,0,14.5,9.272,14.5,23.625V34.518H1.962A1.96,1.96,0,0,0,0,36.477V52.26a1.959,1.959,0,0,0,1.961,1.957H14.5V94.044A1.959,1.959,0,0,0,16.463,96H32.824a1.959,1.959,0,0,0,1.961-1.958V54.218H49.447a1.959,1.959,0,0,0,1.961-1.957l0.006-15.783a1.961,1.961,0,0,0-1.962-1.959H34.786V25.284c0-4.438,1.06-6.692,6.851-6.692l8.4,0A1.959,1.959,0,0,0,52,16.632V1.976A1.96,1.96,0,0,0,50.041.019Z"/>
</svg>
