<svg xmlns="http://www.w3.org/2000/svg" width="612" height="612" viewBox="0 0 612 612">
  <defs>
    <style>
      .cls-1 {
        fill-rule: evenodd;
      }
    </style>
  </defs>
  <path id="Forma_1" data-name="Forma 1" class="cls-1" d="M306,0C137.27,0,0,137.271,0,306S137.27,612,306,612,612,474.729,612,306,474.73,0,306,0ZM505.408,144.317a255.58,255.58,0,0,1,57.261,153.841c-63.635-13.173-121.256-11.627-172.124-1.654-9.21-21.539-18.745-42.06-28.368-61.454C417.574,211.185,465.8,180.7,505.408,144.317Zm-34.471-35.035c-39.315,35.886-84.876,62.457-131.528,82.074A1179.134,1179.134,0,0,0,252.45,54.789,256.229,256.229,0,0,1,470.937,109.282ZM202.827,70.835c15.071,19.528,50.966,68.424,89.524,137.992C195.445,240.4,101.414,245.718,56.229,246.213A257.839,257.839,0,0,1,202.827,70.835ZM49.4,295.469c0.485,0,.953,0,1.448,0a888.52,888.52,0,0,0,155.766-14.38A756.886,756.886,0,0,0,315.653,252.97c8.9,17.737,17.746,36.446,26.324,56.057a462.959,462.959,0,0,0-120.208,59.6A541.281,541.281,0,0,0,110.077,471.85,255.647,255.647,0,0,1,49.131,306C49.131,302.469,49.256,298.968,49.4,295.469Zm96.081,210.855a494.062,494.062,0,0,1,105.59-98.212q53-36.2,109.517-53.832c21.834,56.594,40.475,119.125,51.588,185.522A256.035,256.035,0,0,1,145.481,506.324Zm311.9,7.022a1018.479,1018.479,0,0,0-48.283-170.717q72.863-12.293,150.339,5.077A257.135,257.135,0,0,1,457.377,513.346Z"/>
</svg>
