<svg xmlns="http://www.w3.org/2000/svg" width="90" height="86" viewBox="0 0 90 86">
  <defs>
    <style>
      .cls-1 {
        fill-rule: evenodd;
      }
    </style>
  </defs>
  <path id="Forma_1" data-name="Forma 1" class="cls-1" d="M91,53.727V87H71.71V55.955c0-7.8-2.79-13.121-9.772-13.121-5.33,0-8.5,3.587-9.9,7.057a13.2,13.2,0,0,0-.64,4.7V87H32.1s0.26-52.58,0-58.028H51.4V37.2c-0.039.062-.09,0.128-0.127,0.188H51.4V37.2c2.563-3.948,7.142-9.588,17.389-9.588C81.482,27.609,91,35.9,91,53.727ZM11.919,1C5.318,1,1,5.33,1,11.024c0,5.57,4.193,10.031,10.663,10.031h0.129c6.729,0,10.914-4.46,10.914-10.031C22.579,5.33,18.521,1,11.919,1ZM2.146,87H21.435V28.972H2.146V87Z"/>
</svg>
