<svg xmlns="http://www.w3.org/2000/svg" width="57" height="56" viewBox="0 0 57 56">
  <defs>
    <style>
      .cls-1 {
        fill-rule: evenodd;
      }
    </style>
  </defs>
  <path id="Forma_1" data-name="Forma 1" class="cls-1" d="M55.534,44.933l-8.742-8.744a4.56,4.56,0,0,0-6.427.121l-4.4,4.4-0.869-.484A43.825,43.825,0,0,1,24.5,32.568a44.055,44.055,0,0,1-7.677-10.612c-0.164-.3-0.32-0.579-0.474-0.849L19.3,18.155,20.756,16.7a4.553,4.553,0,0,0,.117-6.427L12.131,1.529A4.554,4.554,0,0,0,5.7,1.65L3.24,4.128,3.308,4.195a14.23,14.23,0,0,0-2.03,3.581,14.846,14.846,0,0,0-.9,3.632c-1.154,9.57,3.219,18.316,15.087,30.185C31.866,58,45.087,56.758,45.658,56.7a14.778,14.778,0,0,0,3.643-.915,14.2,14.2,0,0,0,3.568-2.022l0.054,0.048,2.5-2.444A4.561,4.561,0,0,0,55.534,44.933Z"/>
</svg>
