<svg xmlns="http://www.w3.org/2000/svg" width="492" height="409" viewBox="0 0 492 409">
  <defs>
    <style>
      .cls-1 {
        fill-rule: evenodd;
      }
    </style>
  </defs>
  <path class="cls-1" d="M464.345,166.886l0.768,0.168H135.9L239.394,63.242a27.22,27.22,0,0,0,0-38.244l-16.1-16.126a26.921,26.921,0,0,0-38.023-.02L7.864,186.4a27.162,27.162,0,0,0,0,38.188l177.4,177.563a26.946,26.946,0,0,0,38.023,0l16.1-16.126A26.683,26.683,0,0,0,247.242,367a25.883,25.883,0,0,0-7.848-18.668L134.734,243.939H464.713c14.828,0,27.287-12.791,27.287-27.624V193.508C492,178.676,479.173,166.886,464.345,166.886Z"/>
</svg>
